<?xml version="1.0" encoding="UTF-8" standalone="no"?>
<!-- Created with Inkscape (http://www.inkscape.org/) -->

<svg
   width="150mm"
   height="150mm"
   viewBox="0 0 150 150"
   version="1.1"
   id="svg5"
   inkscape:version="1.1.2 (b8e25be833, 2022-02-05)"
   sodipodi:docname="logo.svg"
   xmlns:inkscape="http://www.inkscape.org/namespaces/inkscape"
   xmlns:sodipodi="http://sodipodi.sourceforge.net/DTD/sodipodi-0.dtd"
   xmlns="http://www.w3.org/2000/svg"
   xmlns:svg="http://www.w3.org/2000/svg">
  <sodipodi:namedview
     id="namedview7"
     pagecolor="#ffffff"
     bordercolor="#666666"
     borderopacity="1.0"
     inkscape:pageshadow="2"
     inkscape:pageopacity="0.0"
     inkscape:pagecheckerboard="0"
     inkscape:document-units="mm"
     showgrid="false"
     showguides="false"
     width="150mm"
     inkscape:zoom="1.5488348"
     inkscape:cx="396.74988"
     inkscape:cy="386.74235"
     inkscape:window-width="2100"
     inkscape:window-height="1496"
     inkscape:window-x="-2111"
     inkscape:window-y="649"
     inkscape:window-maximized="1"
     inkscape:current-layer="layer1" />
  <defs
     id="defs2" />
  <g
     inkscape:label="Ebene 1"
     inkscape:groupmode="layer"
     id="layer1">
    <g
       id="g55719"
       transform="matrix(1.7818552,0,0,2.0236015,-53.546246,-76.579061)">
      <path
         style="fill:#000000;stroke-width:0.264583"
         id="path75"
         d="m 50.176294,45.390567 c 2.211221,-0.164328 4.425326,-0.252947 6.641682,-0.309182 3.661381,-0.101878 7.321794,-0.04456 10.980717,0.104074 3.576237,0.157964 7.138667,0.515411 10.691907,0.938575 3.01476,0.406956 6.055299,0.546978 9.090631,0.705363 1.968608,0.219089 3.979987,0.03518 5.944573,0.277593 0,0 3.239011,-2.285198 3.239011,-2.285198 v 0 c -0.671459,-0.10346 -1.355177,-0.07093 -2.033643,-0.08705 -1.347608,-0.032 -2.694826,-0.07961 -4.041465,-0.13965 -3.027487,-0.151183 -6.055424,-0.339312 -9.067131,-0.691306 -3.574658,-0.410816 -7.154,-0.798661 -10.752373,-0.929373 -3.646865,-0.172408 -7.295504,-0.263943 -10.946299,-0.159295 -2.183127,0.03339 -4.366186,0.08142 -6.544043,0.247917 0,0 -3.203567,2.327527 -3.203567,2.327527 z" />
      <path
         style="fill:#000000;stroke-width:0.264583"
         id="path77"
         d="m 95.585628,48.990353 c 0.141803,2.544341 0.997447,4.950153 1.775188,7.351191 0.811577,2.96613 1.966306,5.813012 3.067414,8.677531 0.73757,2.188213 1.99249,4.098314 3.31543,5.965206 1.15734,1.561859 2.19502,3.208462 3.19051,4.87693 0.61817,1.256024 1.32272,2.458738 2.05684,3.649985 0.49614,0.709745 0.25737,0.41611 0.68757,0.903526 0,0 3.37947,-2.069018 3.37947,-2.069018 v 0 c -0.44127,-0.389163 -0.19536,-0.139057 -0.68286,-0.800584 -0.72994,-1.193343 -1.38897,-2.420173 -2.04591,-3.654113 -1.02622,-1.660964 -2.07499,-3.310758 -3.23173,-4.884642 -1.30208,-1.841305 -2.55552,-3.715198 -3.29066,-5.869774 -1.12055,-2.847903 -2.28205,-5.683109 -3.07493,-8.646501 -0.757151,-2.39119 -1.605895,-4.787812 -1.638264,-7.327434 0,0 -3.508068,1.827697 -3.508068,1.827697 z" />
      <path
         style="fill:#000000;stroke-width:0.264583"
         id="path79"
         d="m 108.63076,83.4324 c -2.35715,1.953988 -4.45114,4.192519 -6.50751,6.452952 -1.86348,2.037419 -3.514297,4.247515 -5.020752,6.557444 -0.994842,1.574522 -2.03272,3.122319 -2.955365,4.740994 -0.630824,0.96313 -1.076401,1.98167 -1.261022,3.11534 -0.01738,0.11649 -0.03477,0.23299 -0.05216,0.34948 0,0 3.559704,-1.74845 3.559704,-1.74845 v 0 c 0.01624,-0.1111 0.0325,-0.22219 0.04875,-0.33329 0.217683,-1.07936 0.707001,-2.04473 1.285139,-2.978136 0.927246,-1.601811 1.951937,-3.144213 2.939376,-4.709115 1.49739,-2.280137 3.13537,-4.462671 4.98283,-6.47415 2.08107,-2.278862 4.21937,-4.518462 6.63864,-6.445576 0,0 -3.65763,1.472507 -3.65763,1.472507 z" />
      <path
         style="fill:#000000;stroke-width:0.264583"
         id="path81"
         d="m 46.557882,107.53318 c 2.263232,-0.86411 4.668361,-1.1589 7.06315,-1.38537 3.155402,-0.0927 6.273228,-0.44692 9.407482,-0.78982 1.852555,-0.16932 3.699436,-0.52138 5.564598,-0.53946 1.176025,-0.0114 1.511684,0.0738 2.703822,0.22368 2.585794,0.35217 5.130628,0.93196 7.683786,1.45933 1.689954,0.26913 3.366336,0.61147 5.050112,0.91528 0.157747,0.0175 0.315497,0.035 0.473244,0.0526 0,0 3.215048,-2.30125 3.215048,-2.30125 v 0 c -0.153744,-0.005 -0.307488,-0.009 -0.461232,-0.0138 -1.695162,-0.27157 -3.377915,-0.61701 -5.073508,-0.88562 -2.576422,-0.49356 -5.138261,-1.06819 -7.735093,-1.45142 -1.169242,-0.17586 -1.573419,-0.28153 -2.736088,-0.28905 -1.875539,-0.0121 -3.732567,0.3633 -5.593781,0.53199 -1.568582,0.17269 -3.135389,0.38887 -4.706866,0.53275 -1.730288,0.15843 -1.503527,0.10033 -3.191299,0.17549 -0.498705,0.0222 -0.996965,0.0535 -1.495448,0.0802 -2.380824,0.20828 -4.784109,0.44912 -7.049291,1.26162 0,0 -3.118636,2.42285 -3.118636,2.42285 z" />
      <path
         style="fill:#000000;stroke-width:0.264583"
         id="path83"
         d="m 30.687414,76.129585 c 2.074215,1.663042 3.446831,3.99977 4.875813,6.20005 1.392622,2.258045 2.73929,4.545232 4.17535,6.776159 0.984496,1.430608 1.727534,2.996589 2.38397,4.597578 0.365718,1.121052 0.836308,2.203164 1.244084,3.308291 0.291373,0.791705 0.618559,1.570207 0.901676,2.364632 0.251058,0.653025 0.560928,1.279515 0.851046,1.915335 0.209931,0.69841 0.379682,1.40895 0.557781,2.11735 0.08853,0.31526 0.08525,0.64772 0.167148,0.96338 0,0 3.505737,-1.90696 3.505737,-1.90696 v 0 c -0.0938,-0.30689 -0.08375,-0.63993 -0.184036,-0.94645 -0.192228,-0.72779 -0.357743,-1.46318 -0.594905,-2.176993 C 48.283767,98.716218 47.984184,98.096196 47.737849,97.452515 47.442376,96.662559 47.1117,95.88629 46.818039,95.095231 46.402624,93.988645 45.931476,92.902806 45.549841,91.783089 44.867147,90.169647 44.103009,88.582713 43.106551,87.135847 41.634034,84.928391 40.27153,82.6498 38.883809,80.388676 37.414356,78.138297 36.011752,75.791885 34.003847,73.96808 c 0,0 -3.316433,2.161505 -3.316433,2.161505 z" />
      <path
         style="fill:#ffff00;stroke-width:0.264583"
         id="path118"
         d="m 33.514019,61.829507 c 1.298403,0.849387 2.72702,1.439574 4.214026,1.860402 1.224529,0.356761 2.429897,0.223184 3.642564,-0.07588 0.906833,-0.277455 1.805165,-0.584681 2.684605,-0.939919 0.67019,-0.255664 1.29621,-0.60135 1.927567,-0.936696 1.947947,-0.783093 3.297264,-1.816238 4.8216,-3.010077 0.477964,-0.537179 0.880205,-1.170541 1.162253,-1.833642 0.224645,-0.635119 0.248161,-1.311463 0.266859,-1.977808 0.0104,-0.679765 0.004,-1.359652 0.0011,-2.039456 -0.0085,-0.694042 -0.181067,-1.374447 -0.261829,-2.063594 -0.0052,-0.733234 -0.195146,-1.411698 -0.526036,-2.061625 -0.05055,-0.09574 -0.1011,-0.191474 -0.151649,-0.287211 0,0 -3.443708,1.971781 -3.443708,1.971781 v 0 c 0.04989,0.09362 0.09979,0.187238 0.149683,0.280855 0.312515,0.612423 0.437589,1.254591 0.460166,1.939933 0.0867,0.673082 0.250706,1.340689 0.240038,2.022007 0.0027,0.675126 0.0096,1.350475 -0.0091,2.025435 -0.02827,0.624224 -0.06735,1.258203 -0.337254,1.833208 -0.322607,0.612548 -0.686636,1.228813 -1.237171,1.66324 -1.243092,0.955646 -3.827282,2.664134 1.968873,-0.936988 -0.659365,0.282864 -1.240046,0.722247 -1.92601,0.954112 -0.860822,0.40023 -1.771301,0.669224 -2.660126,0.999432 -1.169832,0.31529 -2.325873,0.570222 -3.533161,0.24653 -1.461228,-0.36885 -2.872119,-0.906481 -4.121256,-1.767512 0,0 -3.332052,2.133476 -3.332052,2.133476 z" />
      <path
         style="fill:#ffff00;stroke-width:0.264583"
         id="path120"
         d="m 50.96947,55.558655 c 0.874263,0.01405 1.74461,-0.02207 2.615808,-0.09089 0,0 3.163343,-2.339488 3.163343,-2.339488 v 0 c -0.857748,0.07792 -1.713077,0.15131 -2.575584,0.102849 0,0 -3.203567,2.327529 -3.203567,2.327529 z" />
      <path
         style="fill:#ffff00;stroke-width:0.264583"
         id="path122"
         d="m 49.50371,60.468681 c 1.081223,0.730303 1.995961,1.682731 2.716136,2.766737 0.07142,0.149717 0.142848,0.299437 0.214273,0.449154 0,0 3.433273,-1.949563 3.433273,-1.949563 v 0 c -0.08144,-0.165114 -0.162872,-0.330227 -0.244309,-0.49534 -0.757457,-1.116497 -1.704228,-2.097961 -2.787324,-2.904464 0,0 -3.332049,2.133476 -3.332049,2.133476 z" />
      <path
         style="fill:#ffff00;stroke-width:0.264583"
         id="path124"
         d="m 44.227006,63.847974 c -0.104024,1.511665 -0.192366,3.024015 -0.241369,4.538501 -0.02365,0.873604 -0.03034,0.446275 0.0155,1.282054 0,0 3.502347,-1.806636 3.502347,-1.806636 v 0 c -0.03615,-0.804981 -0.03045,-0.38913 -0.0118,-1.247613 0.04871,-1.51174 0.115014,-3.024574 0.281104,-4.528688 0,0 -3.545795,1.762382 -3.545795,1.762382 z" />
      <path
         style="fill:#ffff00;stroke-width:0.264583"
         id="path126"
         d="m 36.992869,65.262322 c -0.43293,1.808422 -1.021215,3.590499 -1.727467,5.311484 0,0 3.578426,-1.662379 3.578426,-1.662379 v 0 c 0.618984,-1.768671 1.24116,-3.5408 1.711671,-5.355754 0,0 -3.56263,1.706649 -3.56263,1.706649 z" />
      <path
         style="fill:#008000;stroke-width:0.264583"
         id="path161"
         d="m 49.178421,85.724213 c 0.554532,1.071962 1.190493,2.097088 1.811973,3.130325 0.508992,0.744585 0.979212,1.496121 1.293275,2.344108 0.237921,0.878686 0.40182,1.780453 0.545804,2.679726 0.25146,1.069907 0.381592,2.16068 0.464412,3.254883 0.05749,0.869945 0.05906,1.742125 0.05934,2.613552 -0.0011,0.535643 0.0109,0.252664 -0.04453,0.848533 0,0 3.535934,-1.764354 3.535934,-1.764354 v 0 c 0.04805,-0.631007 0.039,-0.336309 0.03727,-0.883722 -0.006,-0.879234 -0.01323,-1.759648 -0.08306,-2.636594 -0.09949,-1.102444 -0.245094,-2.199899 -0.477134,-3.283092 -0.151963,-0.923058 -0.311724,-1.852033 -0.581837,-2.748349 -0.326941,-0.870598 -0.80087,-1.646833 -1.334575,-2.406542 -0.628052,-1.022969 -1.278564,-2.036148 -1.79533,-3.122133 0,0 -3.431545,1.973659 -3.431545,1.973659 z" />
      <path
         style="fill:#008000;stroke-width:0.264583"
         id="path163"
         d="m 59.308436,97.371658 c 0.08709,-1.494496 0.178638,-2.986241 0.344485,-4.47403 0.159948,-1.122963 0.425008,-2.203267 0.864171,-3.247562 0.38377,-0.842266 0.61459,-1.729951 0.729472,-2.645018 0.0394,-0.474311 0.0013,-0.251553 0.103463,-0.669978 0,0 -3.570116,1.732724 -3.570116,1.732724 v 0 c -0.06901,0.449128 -0.03924,0.220038 -0.08822,0.687409 -0.134178,0.883452 -0.391636,1.733185 -0.757412,2.549898 -0.419878,1.07496 -0.653296,2.19284 -0.799912,3.337502 -0.159015,1.49497 -0.217358,2.996057 -0.371726,4.491434 0,0 3.545795,-1.762379 3.545795,-1.762379 z" />
      <path
         style="fill:#008000;stroke-width:0.264583"
         id="path165"
         d="m 60.669262,96.010832 c 0.08671,-1.825151 0.749853,-3.557974 1.203015,-5.315027 0.59958,-2.244756 1.53235,-4.373567 2.351773,-6.541825 0.840597,-2.305151 1.786403,-4.568648 2.805525,-6.799924 0.774912,-1.688211 1.875142,-3.149531 3.222181,-4.414927 1.089829,-1.078043 2.225982,-2.106134 3.314575,-3.185102 0.897798,-0.795811 1.684068,-1.695757 2.505721,-2.565353 0.737687,-0.73271 1.546884,-1.400937 2.361761,-2.047443 0.889198,-0.739164 1.800534,-1.449816 2.698787,-2.177746 0.892646,-0.667986 1.814576,-1.298546 2.695458,-1.981472 -0.348554,0.202744 1.282361,-0.79097 0.955252,-0.604065 -6.546228,3.740393 -0.619898,0.597614 1.42204,-0.878986 0.03815,-0.05392 0.0763,-0.107844 0.114443,-0.161766 0,0 -3.679074,1.525267 -3.679074,1.525267 v 0 c -0.04406,0.0288 -0.08812,0.0576 -0.132186,0.0864 -0.193254,0.122375 -0.7806,0.477001 -0.581559,0.364275 1.001974,-0.567465 3.983236,-2.312376 2.997864,-1.716548 -1.58001,0.955387 -3.254153,1.76571 -4.758417,2.843279 -0.899266,0.663001 -1.808187,1.312884 -2.694173,1.993874 -0.90242,0.72186 -1.801326,1.447503 -2.696879,2.177864 -0.808961,0.666441 -1.633302,1.324708 -2.341822,2.100366 -0.800942,0.880697 -1.635927,1.722824 -2.498598,2.543447 -1.090351,1.07173 -2.222762,2.099469 -3.306268,3.178474 -1.313233,1.321076 -2.380654,2.826997 -3.138151,4.537771 -1.005322,2.239867 -1.925878,4.514448 -2.782538,6.815492 -0.835824,2.176563 -1.760676,4.32453 -2.348696,6.586831 -0.473152,1.784083 -1.112158,3.545012 -1.235829,5.399223 0,0 3.545795,-1.762382 3.545795,-1.762382 z" />
      <path
         style="fill:#008000;stroke-width:0.264583"
         id="path167"
         d="m 59.405691,90.942238 c 0.450014,-1.344607 0.570717,-2.726094 0.59485,-4.132638 -0.0056,-1.369959 -0.04335,-2.739477 -0.05812,-4.109326 -0.01228,-1.153445 -0.0081,-2.306973 -0.0046,-3.460451 -0.09265,-0.708554 0.216805,-1.390009 0.05853,-2.085046 0,0 -3.507973,1.870517 -3.507973,1.870517 v 0 c 0.08749,0.662538 -0.187846,1.34049 -0.07558,2.011349 0.0073,1.150401 0.02027,2.300745 0.03136,3.451114 0.01635,1.366938 0.04493,2.733783 0.04848,4.100777 -0.02925,1.382527 -0.192833,2.736742 -0.66444,4.047088 0,0 3.577524,-1.693384 3.577524,-1.693384 z" />
      <path
         style="fill:#808080;stroke-width:0.264583"
         id="path235"
         d="m 73.64674,74.68293 c 1.206986,-0.134321 2.418884,-0.216858 3.631784,-0.272884 0.953905,-0.04003 1.908797,-0.04516 2.863395,-0.04731 1.303242,-0.08033 2.603257,-0.210749 3.89989,-0.364067 1.454261,-0.182846 2.917436,-0.255368 4.381457,-0.29564 1.173152,-0.02641 2.344259,-0.05183 3.513558,0.05696 0.875374,0.104214 1.752,0.192119 2.632382,0.238691 0.57476,0.0088 1.150144,0.110032 1.703382,0.26394 0.01942,0.01625 0.03884,0.03247 0.05826,0.04869 0,0 3.409781,-2.058747 3.409781,-2.058747 v 0 c -0.05574,-0.06955 -0.111488,-0.139099 -0.16723,-0.20865 -0.538869,-0.251039 -1.202772,-0.307155 -1.787522,-0.360479 -0.881208,-0.03185 -1.759993,-0.100637 -2.635213,-0.209796 -1.183272,-0.126733 -2.364335,-0.137364 -3.553989,-0.08872 -1.472002,0.03524 -2.944662,0.08831 -4.407115,0.271708 -1.283332,0.140885 -2.565947,0.270187 -3.852293,0.383733 -0.958123,0.0011 -1.916687,-0.0046 -2.874254,0.03376 -1.213937,0.05473 -2.425792,0.142496 -3.636226,0.249589 0,0 -3.180051,2.359224 -3.180051,2.359224 z" />
      <path
         style="fill:#333333;stroke-width:0.293459"
         id="path897"
         d="m 74.37225,82.432879 c -0.227812,1.455816 -0.420359,2.918268 -0.52353,4.393033 -0.04619,1.442796 -0.315965,2.857521 -0.498748,4.282004 -0.123857,1.530753 -0.34042,3.047071 -0.48534,4.575233 -0.100495,1.06684 -0.136445,2.139155 -0.151321,3.211425 -0.200015,0.92384 0.04297,1.289406 0.823198,1.532186 1.452433,0.22643 2.922905,0.0123 4.373327,-0.13114 2.300936,-0.23492 4.606264,-0.409266 6.914016,-0.523886 2.260747,-0.0251 4.997978,-0.54916 5.97452,-3.472094 0.412047,-1.287747 0.553579,-2.654893 0.64141,-4.014664 0.06054,-1.069791 0.05443,-2.142148 0.05384,-3.213556 -0.03703,-0.803619 0.0429,-1.602227 0.27871,-2.360784 0.281341,-0.90248 0.517009,-1.821886 0.751977,-2.745389 0.215999,-1.216762 0.314325,-2.468581 0.625637,-3.660543 0.106039,-0.272235 0.129521,-0.574483 0.21814,-0.852661 0.152319,-0.478147 0.295463,-0.659641 0.05687,-1.135874 -0.182661,-0.08402 -0.352613,-0.225771 -0.547988,-0.25208 -0.429525,-0.05783 -1.904425,0.176051 -2.223539,0.218172 -1.513546,0.199761 -3.025229,0.413323 -4.537481,0.625712 -1.814001,0.25048 -3.63147,0.472876 -5.456007,0.589147 -0.776632,0.04588 -1.554396,0.04665 -2.331803,0.04489 -0.421528,0.01565 -0.83591,-2.7e-5 -1.250985,-0.08404 0,0 -3.370161,2.70019 -3.370161,2.70019 v 0 c 0.433625,0.116464 0.853623,0.205426 1.302727,0.157471 0.787518,0.0031 1.575482,0.0077 2.362334,-0.03656 1.856601,-0.119427 3.703715,-0.369996 5.548851,-0.630139 2.313064,-0.325604 4.629457,-0.617527 6.941481,-0.948835 -0.01858,0.522994 -0.352728,1.082897 -0.404427,1.632314 -0.246138,1.207637 -0.375688,2.442672 -0.6292,3.648042 -0.240701,0.923071 -0.500155,1.836171 -0.765902,2.749278 -0.182081,0.81477 -0.262071,1.637983 -0.215039,2.480689 0.002,1.058289 0.002,2.117678 -0.05842,3.174191 -0.09455,1.31334 -0.239588,2.642812 -0.714762,3.856233 -0.897406,1.61947 -0.357076,0.49084 2.972897,-1.584552 0.112008,-0.0698 -0.210111,0.172795 -0.330425,0.22092 -0.514857,0.205926 -1.095569,0.02351 -1.62092,0.130678 -2.322696,0.136067 -4.64202,0.335904 -6.960641,0.542993 -1.407472,0.128461 -2.822894,0.297721 -4.235057,0.172641 -0.771094,-0.0857 -0.596118,-0.0704 -0.533568,-0.963209 0.01515,-1.055247 0.05015,-2.11059 0.148022,-3.160602 0.145531,-1.520362 0.347878,-3.032618 0.486115,-4.553941 0.194682,-1.433755 0.450589,-2.861311 0.497145,-4.315861 0.112588,-1.461826 0.285184,-2.917674 0.556727,-4.352581 0,0 -3.682684,2.055548 -3.682684,2.055548 z" />
      <text
         xml:space="preserve"
         style="font-style:normal;font-weight:normal;font-size:14.1483px;line-height:0;font-family:sans-serif;fill:#000000;fill-opacity:1;stroke:none;stroke-width:0.353705"
         x="65.37233"
         y="99.976357"
         id="text3629"
         transform="scale(1.1831119,0.84522859)"><tspan
           style="font-style:normal;font-variant:normal;font-weight:bold;font-stretch:normal;font-size:2.01558px;line-height:0.05;font-family:monospace;-inkscape-font-specification:'monospace Bold';stroke-width:0.353705"
           sodipodi:role="line"
           id="tspan10287"
           x="65.37233"
           y="99.976357">2.2 3.4 </tspan><tspan
           style="font-style:normal;font-variant:normal;font-weight:bold;font-stretch:normal;font-size:2.01558px;line-height:0.05;font-family:monospace;-inkscape-font-specification:'monospace Bold';stroke-width:0.353705"
           sodipodi:role="line"
           id="tspan10289"
           x="65.37233"
           y="103.58429">1.2 0.4 </tspan><tspan
           style="font-style:normal;font-variant:normal;font-weight:bold;font-stretch:normal;font-size:2.01558px;line-height:0.05;font-family:monospace;-inkscape-font-specification:'monospace Bold';stroke-width:0.353705"
           sodipodi:role="line"
           id="tspan10291"
           x="65.37233"
           y="107.19222">2.2 1.4 </tspan><tspan
           style="font-style:normal;font-variant:normal;font-weight:bold;font-stretch:normal;font-size:2.01558px;line-height:0.05;font-family:monospace;-inkscape-font-specification:'monospace Bold';stroke-width:0.353705"
           sodipodi:role="line"
           id="tspan10293"
           x="65.37233"
           y="110.80016">  2 3.5</tspan><tspan
           sodipodi:role="line"
           style="line-height:0.05;stroke-width:0.353705"
           x="65.37233"
           y="114.7618"
           id="tspan3639"><tspan
   id="tspan19507"
   style="font-size:2.01558px;line-height:0.05;stroke-width:0.353705">1.2  3.4</tspan> </tspan></text>
      <path
         style="fill:#333333;stroke-width:0.264583"
         id="path55608"
         d="m 94.62428,73.955229 c 0.945214,0.235 1.889903,0.47067 2.845647,0.659387 0.463595,0.0954 0.933926,0.141382 1.405729,0.167891 0,0 3.207464,-2.312718 3.207464,-2.312718 v 0 c -0.46918,-0.0075 -0.93841,-0.02857 -1.40263,-0.102533 -0.949055,-0.150387 -1.892372,-0.347814 -2.80442,-0.654984 0,0 -3.25179,2.242957 -3.25179,2.242957 z" />
      <path
         style="fill:#333333;stroke-width:0.264583"
         id="path55612"
         d="m 96.607213,72.594972 c 0.761918,0.290272 1.540828,0.538681 2.325312,0.760775 0.09935,0.02484 0.198702,0.0497 0.298053,0.07455 0,0 3.237752,-2.245357 3.237752,-2.245357 v 0 c -0.0988,-0.01942 -0.19761,-0.03881 -0.29642,-0.05822 -0.76711,-0.184719 -1.52527,-0.420256 -2.260654,-0.705686 0,0 -3.304043,2.173944 -3.304043,2.173944 z" />
    </g>
  </g>
</svg>
