<?xml version="1.0" encoding="UTF-8" standalone="no"?>
<!-- Created with Inkscape (http://www.inkscape.org/) -->

<svg
   width="150mm"
   height="150mm"
   viewBox="0 0 150 150"
   version="1.1"
   id="svg5"
   sodipodi:docname="logo.svg"
   inkscape:version="1.1.2 (b8e25be833, 2022-02-05)"
   xmlns:inkscape="http://www.inkscape.org/namespaces/inkscape"
   xmlns:sodipodi="http://sodipodi.sourceforge.net/DTD/sodipodi-0.dtd"
   xmlns="http://www.w3.org/2000/svg"
   xmlns:svg="http://www.w3.org/2000/svg">
  <sodipodi:namedview
     id="namedview7"
     pagecolor="#ffffff"
     bordercolor="#666666"
     borderopacity="1.0"
     inkscape:pageshadow="2"
     inkscape:pageopacity="0.0"
     inkscape:pagecheckerboard="0"
     inkscape:document-units="mm"
     showgrid="false"
     showguides="false"
     width="150mm"
     inkscape:zoom="1.5488348"
     inkscape:cx="258.58148"
     inkscape:cy="386.74234"
     inkscape:window-width="2100"
     inkscape:window-height="1496"
     inkscape:window-x="-2111"
     inkscape:window-y="649"
     inkscape:window-maximized="1"
     inkscape:current-layer="layer1" />
  <defs
     id="defs2" />
  <g
     inkscape:label="Ebene 1"
     inkscape:groupmode="layer"
     id="layer1">
    <path
       style="fill:#000000;stroke-width:0.502413"
       id="path75"
       d="m 72.253505,2.6195414 c 3.578472,1.6820551 7.084793,3.4993591 10.561822,5.3754197 5.753073,3.0834859 11.343578,6.4450989 16.839392,9.9654129 5.358781,3.462999 10.494411,7.263288 15.549371,11.170558 4.24041,3.39912 8.79069,6.353407 13.31436,9.335237 2.81614,2.137837 6.10605,3.607533 8.89239,5.782665 0,0 7.31038,-1.119067 7.31038,-1.119067 v 0 c -0.93147,-0.779533 -2.01944,-1.331665 -3.0501,-1.96438 -2.04716,-1.256695 -4.07792,-2.540411 -6.09522,-3.84539 -4.51884,-2.962217 -9.001,-5.989585 -13.29231,-9.289664 C 117.18309,24.125621 112.05211,20.256992 106.6316,16.822031 101.17845,13.270794 95.640734,9.8597068 89.901194,6.7905074 86.498557,4.904015 83.081212,3.04324 79.55203,1.3947108 c 0,0 -7.29852,1.2248219 -7.29852,1.2248219 z" />
    <path
       style="fill:#000000;stroke-width:0.502413"
       id="path77"
       d="m 138.68383,49.384559 c -2.35554,4.585273 -3.46938,9.56375 -4.69859,14.464456 -1.74877,5.921169 -2.84735,11.939082 -4.04651,17.940134 -1.07587,4.491942 -1.072,8.95742 -0.91945,13.407776 0.20563,3.768247 0.14087,7.578395 -0.0111,11.389285 -0.31693,2.75191 -0.44662,5.48736 -0.51908,8.22905 0.0475,1.68585 -0.0239,0.95853 0.14682,2.196 0,0 7.3084,-0.61507 7.3084,-0.61507 v 0 c -0.28718,-1.07514 -0.16076,-0.41774 -0.24371,-2.01139 0.081,-2.74165 0.30537,-5.4788 0.54013,-8.22656 0.097,-3.82511 0.14785,-7.650732 -0.0447,-11.439524 -0.14624,-4.386929 -0.18445,-8.787629 0.86112,-13.218462 1.15236,-5.989253 2.22868,-11.992734 4.00352,-17.892449 1.25102,-4.865103 2.3662,-9.82133 4.88584,-14.300833 0,0 -7.26267,0.07759 -7.26267,0.07759 z" />
    <path
       style="fill:#000000;stroke-width:0.502413"
       id="path79"
       d="m 123.9657,121.36618 c -5.61444,1.3243 -11.11069,3.38171 -16.57105,5.51102 -4.93706,1.91033 -9.720661,4.31274 -14.382506,7.01873 -3.128277,1.873 -6.295926,3.66083 -9.357465,5.67553 -1.947933,1.12586 -3.666083,2.51386 -5.09802,4.33613 -0.144712,0.18864 -0.289434,0.37731 -0.434146,0.56596 0,0 7.26218,0.10729 7.26218,0.10729 v 0 c 0.137439,-0.18025 0.274953,-0.36043 0.412483,-0.54064 1.428009,-1.69762 3.159848,-2.95347 4.996418,-4.07419 3.051574,-1.98104 6.193412,-3.77116 9.300526,-5.6339 4.61771,-2.66186 9.35363,-5.0274 14.23971,-6.90655 5.51713,-2.1396 11.08283,-4.1594 16.76594,-5.38126 0,0 -7.13409,-0.67813 -7.13409,-0.67813 z" />
    <path
       style="fill:#000000;stroke-width:0.502413"
       id="path81"
       d="m 3.7938733,108.30013 c 4.3667757,0.50203 8.3764767,2.1282 12.3010927,3.8649 4.962996,2.64878 10.132613,4.80577 15.316124,6.99724 3.030057,1.35376 6.236253,2.38221 9.132734,4.01226 1.826312,1.02774 2.258058,1.47613 3.946034,2.8009 3.633896,2.92093 6.974281,6.20427 10.380545,9.40316 2.335517,1.97727 4.576015,4.07076 6.866909,6.1033 0.225724,0.1712 0.451453,0.3424 0.677058,0.51381 0,0 7.289645,-1.16855 7.289645,-1.16855 v 0 c -0.232198,-0.14572 -0.465395,-0.28971 -0.697793,-0.43508 -2.34108,-1.98619 -4.588274,-4.09078 -6.933018,-6.07217 -3.476374,-3.16036 -6.848219,-6.44981 -10.467724,-9.435 -1.626354,-1.34991 -2.143138,-1.89519 -3.929679,-2.94422 -2.881954,-1.69219 -6.127433,-2.68876 -9.170212,-4.05134 -2.595254,-1.09486 -5.231778,-2.11191 -7.80235,-3.25984 -2.830362,-1.26392 -2.421655,-1.16371 -5.102154,-2.53568 -0.792019,-0.40542 -1.592585,-0.79446 -2.388824,-1.19178 -3.884661,-1.75614 -7.836932,-3.47521 -12.154491,-4.06943 0,0 -7.2639117,1.46754 -7.2639117,1.46754 z" />
    <path
       style="fill:#000000;stroke-width:0.502413"
       id="path83"
       d="m 11.077832,39.126192 c 1.518119,4.762441 1.271944,10.080435 1.250806,15.209524 -0.135691,5.197927 -0.371783,10.405984 -0.413006,15.595087 0.07172,3.384241 -0.366137,6.790599 -0.973056,10.181159 -0.569928,2.290459 -0.938626,4.606108 -1.4275436,6.906135 -0.3514185,1.647042 -0.6342165,3.302861 -1.0011301,4.94732 -0.2733144,1.368092 -0.4290295,2.742085 -0.6246636,4.114831 -0.3826993,1.410987 -0.8396759,2.807437 -1.2816053,4.207572 -0.1823671,0.63137 -0.5238132,1.21108 -0.7168191,1.83724 0,0 7.3392797,-0.21858 7.3392797,-0.21858 v 0 c 0.165764,-0.62139 0.518243,-1.19608 0.673628,-1.82261 0.439747,-1.446705 0.9284,-2.882925 1.284663,-4.345167 0.189766,-1.352578 0.354811,-2.706069 0.625958,-4.053578 0.343326,-1.647638 0.61848,-3.302651 0.965717,-4.950607 0.4786,-2.309378 0.850211,-4.632063 1.394228,-6.934364 0.578998,-3.435778 1.005493,-6.897655 0.931765,-10.321042 -0.03878,-5.180452 0.164175,-10.387553 0.310545,-15.58651 0.0094,-5.252943 0.219075,-10.614626 -1.034061,-15.599725 0,0 -7.304705,0.833315 -7.304705,0.833315 z" />
    <path
       style="fill:#ffff00;stroke-width:0.502413"
       id="path118"
       d="m 25.328388,24.829985 c 1.979949,2.094455 4.279476,3.712651 6.740974,5.011405 2.023422,1.089864 4.18552,1.196625 6.41858,0.97585 1.688791,-0.272343 3.373128,-0.606644 5.041186,-1.042466 1.265879,-0.302138 2.485881,-0.797337 3.711615,-1.270285 3.693402,-0.957871 6.424205,-2.599279 9.518595,-4.506778 1.027486,-0.922633 1.955892,-2.060373 2.683837,-3.29457 0.617381,-1.196193 0.89631,-2.536774 1.163271,-3.85892 0.257114,-1.351458 0.484767,-2.708363 0.718623,-4.064 0.228964,-1.385758 0.16524,-2.7951047 0.265683,-4.1934661 0.248495,-1.4628457 0.153624,-2.8736958 -0.198636,-4.27129 -0.05505,-0.2064388 -0.110123,-0.4128626 -0.165179,-0.6192963 0,0 -6.73584,2.8639426 -6.73584,2.8639426 v 0 c 0.05464,0.2020109 0.109289,0.4040227 0.163936,0.6060282 0.333195,1.3171685 0.327013,2.6356189 0.12581,4.0083946 -0.08438,1.368183 -0.03118,2.749376 -0.289307,4.103846 -0.232508,1.346264 -0.4577,2.694276 -0.727701,4.033589 -0.268954,1.235243 -0.56031,2.48658 -1.235987,3.548971 -0.781353,1.120902 -1.636697,2.236395 -2.755424,2.931802 -2.517167,1.519836 -7.65222,4.12502 3.784201,-1.258085 -1.256441,0.359688 -2.429806,1.055648 -3.715002,1.305476 -1.651194,0.531253 -3.343413,0.785601 -5.019144,1.168642 -2.163593,0.266363 -4.281779,0.416707 -6.286565,-0.601916 -2.434529,-1.187194 -4.721419,-2.695168 -6.610825,-4.797585 0,0 -6.596725,3.220727 -6.596725,3.220727 z" />
    <path
       style="fill:#ffff00;stroke-width:0.70471"
       id="path120"
       d="m 57.805909,11.54374 c 0.871404,1.86045 1.845001,3.582565 2.888765,5.221583 0,0 8.216183,0.528889 8.216183,0.528889 v 0 c -1.049174,-1.587347 -2.086259,-3.181402 -2.872634,-5.106632 0,0 -8.232313,-0.643841 -8.232314,-0.64384 z" />
    <path
       style="fill:#ffff00;stroke-width:0.583837"
       id="path122"
       d="m 53.017585,26.821694 c 2.637735,0.935267 5.148383,2.493263 7.403743,4.485653 0.25888,0.294328 0.51777,0.588667 0.776658,0.88299 0,0 4.815372,-6.81227 4.815372,-6.81227 v 0 c -0.29052,-0.322772 -0.581025,-0.645549 -0.871537,-0.968322 -2.352408,-2.041395 -4.947378,-3.644053 -7.652184,-4.752668 0,0 -4.472052,7.164617 -4.472052,7.164617 z" />
    <path
       style="fill:#ffff00;stroke-width:0.502413"
       id="path124"
       d="m 41.267856,30.140822 c 0.348652,3.044722 0.725063,6.085955 1.171253,9.119273 0.265481,1.748287 0.103576,0.898749 0.477708,2.550155 0,0 5.511026,-4.684046 5.511026,-4.684046 v 0 c -0.346297,-1.593029 -0.190183,-0.766057 -0.459114,-2.482666 -0.445747,-3.027752 -0.860995,-6.063135 -1.09808,-9.11201 0,0 -5.602816,4.609302 -5.602816,4.609302 z" />
    <path
       style="fill:#ffff00;stroke-width:0.502413"
       id="path126"
       d="m 30.678301,29.835443 c -1.39517,3.469973 -3.053695,6.839377 -4.897761,10.050529 0,0 6.863518,-2.205664 6.863518,-2.205664 v 0 c 1.707686,-3.333185 3.422188,-6.672278 4.885599,-10.14364 0,0 -6.851356,2.298775 -6.851356,2.298775 z" />
    <path
       style="fill:#008000;stroke-width:0.502413"
       id="path161"
       d="m 29.303391,80.846748 c 0.988096,2.169224 2.121286,4.243669 3.228674,6.334517 0.90695,1.506731 1.744814,3.027532 2.304428,4.743513 0.423941,1.778098 0.715986,3.602909 0.972544,5.42267 0.448065,2.165045 0.679942,4.372332 0.827515,6.586562 0.102439,1.76042 0.105236,3.52537 0.105735,5.28879 -0.002,1.08393 0.01942,0.51129 -0.07935,1.71709 0,0 6.300523,-3.57035 6.300523,-3.57035 v 0 c 0.08562,-1.2769 0.06949,-0.68055 0.06641,-1.7883 -0.01069,-1.77922 -0.02357,-3.56082 -0.148001,-5.33541 -0.177277,-2.230898 -0.436722,-4.451696 -0.850184,-6.643631 -0.270776,-1.867891 -0.555447,-3.747759 -1.036749,-5.56154 -0.582562,-1.761731 -1.427035,-3.332512 -2.37802,-4.869857 -1.119097,-2.070082 -2.278216,-4.120352 -3.199018,-6.317953 0,0 -6.114516,3.993899 -6.114516,3.993899 z" />
    <path
       style="fill:#008000;stroke-width:0.502413"
       id="path163"
       d="m 47.353611,104.94568 c 0.155182,-3.02427 0.318307,-6.042961 0.613822,-9.053636 0.285005,-2.272424 0.757303,-4.458524 1.539828,-6.571761 0.683823,-1.70441 1.09511,-3.50073 1.299814,-5.352462 0.07021,-0.959817 0.0023,-0.509043 0.184356,-1.355769 0,0 -6.36143,3.506341 -6.36143,3.506341 v 0 c -0.122966,0.90886 -0.06992,0.44527 -0.157195,1.39104 -0.239086,1.78776 -0.697839,3.507277 -1.349599,5.159977 -0.748162,2.17529 -1.164079,4.437428 -1.425327,6.753756 -0.283342,3.025214 -0.387301,6.062814 -0.662362,9.088864 0,0 6.318093,-3.56635 6.318093,-3.56635 z" />
    <path
       style="fill:#008000;stroke-width:0.502413"
       id="path165"
       d="m 47.164885,104.33236 c 0.154505,-3.69337 1.336129,-7.1999 2.143599,-10.755449 1.068364,-4.542466 2.730425,-8.850322 4.190518,-13.238012 1.497823,-4.664707 3.183112,-9.245123 4.99904,-13.760336 1.380781,-3.416267 3.341231,-6.373396 5.74146,-8.934053 1.941917,-2.18153 3.966377,-4.261976 5.906092,-6.445377 1.599746,-1.610405 3.000766,-3.431537 4.464832,-5.191253 1.314452,-1.482713 2.756324,-2.834938 4.208317,-4.143208 1.584422,-1.495774 3.20829,-2.93385 4.808847,-4.40689 1.590566,-1.351738 3.233312,-2.62774 4.802916,-4.00971 -0.621073,0.410273 2.284982,-1.600608 1.702121,-1.222387 -11.664431,7.569065 -1.104569,1.209333 2.533869,-1.778717 0.068,-0.109113 0.13595,-0.218234 0.20392,-0.32735 0,0 -6.555576,3.086532 -6.555576,3.086532 v 0 c -0.07851,0.05828 -0.157017,0.11656 -0.235536,0.17484 -0.344351,0.247638 -1.390917,0.96526 -1.036254,0.737147 1.785372,-1.148323 7.097549,-4.679328 5.341759,-3.473609 -2.815349,1.933322 -5.798429,3.573093 -8.47881,5.753664 -1.602362,1.341649 -3.221927,2.656754 -4.800626,4.034806 -1.607982,1.460757 -3.209702,2.929169 -4.805448,4.407129 -1.441451,1.348611 -2.910308,2.680681 -4.172788,4.250304 -1.427162,1.782179 -2.914985,3.486309 -4.452139,5.146923 -1.942848,2.168754 -3.96064,4.248488 -5.891291,6.431965 -2.339991,2.673331 -4.241981,5.720715 -5.591731,9.18264 -1.791338,4.532598 -3.431636,9.135443 -4.95808,13.79184 -1.489317,4.404492 -3.137269,8.751098 -4.185036,13.329061 -0.843088,3.61026 -1.981704,7.17366 -2.202068,10.92585 0,0 6.318093,-3.56636 6.318093,-3.56636 z" />
    <path
       style="fill:#008000;stroke-width:0.502413"
       id="path167"
       d="m 45.476977,93.422469 c 0.80186,-2.720935 1.016935,-5.5165 1.059937,-8.362772 -0.01,-2.772251 -0.07724,-5.54361 -0.103561,-8.315638 -0.02188,-2.334114 -0.01443,-4.668395 -0.0082,-7.002574 -0.165089,-1.433831 0.386315,-2.812825 0.104292,-4.219303 0,0 -6.2507,3.785181 -6.2507,3.785181 v 0 c 0.155895,1.340713 -0.334714,2.712618 -0.134673,4.070169 0.01301,2.327954 0.03612,4.655791 0.05588,6.98368 0.02913,2.766138 0.08006,5.532087 0.08638,8.298324 -0.05212,2.797672 -0.343601,5.538047 -1.183936,8.189652 0,0 6.37463,-3.426719 6.37463,-3.426719 z" />
    <path
       style="fill:#808080;stroke-width:0.546064"
       id="path235"
       d="m 66.059574,71.732766 c 2.540622,-0.271812 5.091585,-0.438834 7.644656,-0.552208 2.007905,-0.081 4.017888,-0.09139 6.027251,-0.09574 2.743236,-0.162556 5.479678,-0.426472 8.209002,-0.736726 3.06112,-0.370008 6.141005,-0.516763 9.222665,-0.598258 2.469395,-0.05344 4.934482,-0.104883 7.395772,0.115264 1.84261,0.210888 3.68784,0.388773 5.541,0.483016 1.20983,0.01781 2.42097,0.222661 3.5855,0.534109 0.0409,0.03288 0.0817,0.06571 0.12263,0.09853 0,0 7.17735,-4.166083 7.17735,-4.166083 v 0 c -0.1173,-0.140742 -0.23467,-0.281481 -0.35201,-0.422225 -1.13427,-0.508002 -2.53174,-0.621559 -3.7626,-0.729465 -1.85489,-0.06445 -3.70467,-0.20365 -5.54695,-0.424544 -2.49071,-0.256457 -4.97676,-0.27797 -7.4809,-0.179534 -3.09847,0.07131 -6.198295,0.178704 -9.276653,0.549829 -2.701324,0.285095 -5.401146,0.546751 -8.108816,0.776523 -2.016784,0.0022 -4.034496,-0.0093 -6.050109,0.06832 -2.555255,0.110752 -5.106126,0.288355 -7.654007,0.505069 0,0 -6.69379,4.774129 -6.69379,4.774129 z" />
    <path
       style="fill:#333333;stroke-width:0.670961"
       id="path897"
       d="m 70.696595,83.73799 c -0.383403,3.417933 -0.688314,6.856769 -0.794678,10.337891 0.01694,3.413682 -0.462599,6.728049 -0.749065,10.078349 -0.14746,3.6108 -0.501012,7.17379 -0.695242,10.77541 -0.134076,2.51444 -0.125094,5.0513 -0.06951,7.59116 -0.365853,2.16088 0.201341,3.06313 1.945797,3.75305 3.228783,0.74973 6.461093,0.45759 9.654921,0.33019 5.066051,-0.21966 10.14681,-0.29507 15.237851,-0.22849 4.994541,0.27169 11.001021,-0.56933 12.918211,-7.35562 0.80445,-2.99252 1.00446,-6.21284 1.08642,-9.42358 0.0455,-2.52735 -0.0564,-5.07049 -0.14616,-7.61059 -0.1482,-1.91057 -0.0374,-3.792134 0.42124,-5.555889 0.54735,-2.098281 0.99238,-4.243383 1.43551,-6.398306 0.37702,-2.852939 0.49106,-5.80623 1.08078,-8.586402 0.21192,-0.629848 0.23887,-1.342952 0.41178,-1.989441 0.29722,-1.111226 0.59861,-1.520515 0.032,-2.684498 -0.41063,-0.225957 -0.79796,-0.586922 -1.23195,-0.677931 -0.95407,-0.200054 -4.19455,0.13822 -4.89635,0.191306 -3.3287,0.251723 -6.652151,0.536437 -9.97693,0.818289 -3.988573,0.327921 -7.98712,0.588759 -12.010042,0.596967 -1.712694,-0.0051 -3.431611,-0.117247 -5.149947,-0.235374 -0.930352,-0.02473 -1.847496,-0.122576 -2.771807,-0.382603 0,0 -7.225833,5.90739 -7.225833,5.90739 v 0 c 0.967987,0.339664 1.903588,0.612126 2.892223,0.564271 1.740797,0.12283 3.482699,0.24918 5.218114,0.259605 4.093528,-0.01098 8.15527,-0.334271 12.211849,-0.68054 5.085375,-0.432869 10.180885,-0.785405 15.263483,-1.231949 0.002,1.23715 -0.69024,2.515542 -0.75919,3.81047 -0.44436,2.82689 -0.6288,5.735818 -1.08967,8.556244 -0.45584,2.153056 -0.95394,4.279722 -1.46597,6.405481 -0.33521,1.90491 -0.44409,3.84476 -0.27063,5.84949 0.0926,2.50929 0.17997,5.02075 0.13273,7.51657 -0.10062,3.09968 -0.31144,6.23022 -1.26161,9.03726 -1.849819,3.70771 -0.748703,1.11127 6.43986,-3.32077 0.24179,-0.14907 -0.45013,0.37883 -0.71207,0.47527 -1.12093,0.41277 -2.41945,-0.10474 -3.57166,0.0727 -5.122297,-0.018 -10.231879,0.11595 -15.339319,0.26696 -3.10014,0.0982 -6.214481,0.29204 -9.345902,-0.21147 -1.71131,-0.31619 -1.323324,-0.25424 -1.258728,-2.36172 -0.05358,-2.49946 -0.06328,-4.99625 0.06642,-7.47117 0.196228,-3.58303 0.518688,-7.1385 0.698712,-10.724881 0.311999,-3.370461 0.759827,-6.717278 0.742728,-10.158775 0.128244,-3.449068 0.389612,-6.875171 0.871387,-10.237125 0,0 -7.969737,4.333318 -7.969737,4.333318 z" />
    <text
       xml:space="preserve"
       style="font-style:normal;font-variant:normal;font-weight:bold;font-stretch:normal;font-size:32.1518px;line-height:0;font-family:monospace;-inkscape-font-specification:'monospace Bold';fill:#000000;fill-opacity:1;stroke:none;stroke-width:0.803787"
       x="74.125221"
       y="95.237648"
       id="text3629"
       transform="scale(1.0657291,0.93832475)"><tspan
         style="font-style:normal;font-variant:normal;font-weight:bold;font-stretch:normal;font-size:4.58035px;line-height:0.05;font-family:monospace;-inkscape-font-specification:'monospace Bold';stroke-width:0.803787"
         sodipodi:role="line"
         id="tspan10287"
         x="74.125221"
         y="95.237648">2.2 3.4 </tspan><tspan
         style="font-style:normal;font-variant:normal;font-weight:bold;font-stretch:normal;font-size:4.58035px;line-height:0.05;font-family:monospace;-inkscape-font-specification:'monospace Bold';stroke-width:0.803787"
         sodipodi:role="line"
         id="tspan10289"
         x="74.125221"
         y="102.29697">1.2  gk </tspan><tspan
         style="font-style:normal;font-variant:normal;font-weight:bold;font-stretch:normal;font-size:4.58035px;line-height:0.05;font-family:monospace;-inkscape-font-specification:'monospace Bold';stroke-width:0.803787"
         sodipodi:role="line"
         id="tspan10291"
         x="74.125221"
         y="109.35629">2.2 1.4 </tspan><tspan
         style="font-style:normal;font-variant:normal;font-weight:bold;font-stretch:normal;font-size:4.58035px;line-height:0.05;font-family:monospace;-inkscape-font-specification:'monospace Bold';stroke-width:0.803787"
         sodipodi:role="line"
         id="tspan10293"
         x="74.125221"
         y="116.4156">  2 3.5</tspan><tspan
         sodipodi:role="line"
         style="font-style:normal;font-variant:normal;font-weight:bold;font-stretch:normal;line-height:0.05;font-family:monospace;-inkscape-font-specification:'monospace Bold';stroke-width:0.803787"
         x="74.125221"
         y="124.27871"
         id="tspan3639"><tspan
   id="tspan19507"
   style="font-style:normal;font-variant:normal;font-weight:bold;font-stretch:normal;font-size:4.58035px;line-height:0.05;font-family:monospace;-inkscape-font-specification:'monospace Bold';stroke-width:0.803787">1.2 3.4</tspan> </tspan></text>
    <path
       style="fill:#333333;stroke-width:0.502413"
       id="path55608"
       d="m 110.81047,70.260189 c 1.68424,0.475547 3.36753,0.952449 5.07053,1.334337 0.82606,0.193051 1.66412,0.286101 2.50481,0.339744 0,0 5.71523,-4.680019 5.71523,-4.680019 v 0 c -0.83601,-0.01518 -1.67211,-0.05782 -2.49928,-0.207486 -1.69108,-0.304324 -3.37193,-0.703837 -4.99707,-1.325427 0,0 -5.79422,4.538851 -5.79422,4.538851 z" />
    <path
       style="fill:#333333;stroke-width:0.582344"
       id="path55612"
       d="m 114.34377,67.507571 c 1.82397,0.587395 3.68861,1.090076 5.56661,1.539506 0.23784,0.05027 0.47568,0.100573 0.71352,0.150859 0,0 7.7509,-4.543708 7.7509,-4.543708 v 0 c -0.23651,-0.0393 -0.47305,-0.07854 -0.70959,-0.117814 -1.8364,-0.373797 -3.65139,-0.85043 -5.41183,-1.428027 0,0 -7.90961,4.399196 -7.90961,4.399196 z" />
    <circle
       id="path129"
       style="fill:#ffff00;stroke:#000000;stroke-width:0.264583"
       cx="58.940361"
       cy="52.241074"
       r="0.022754036"
       transform="rotate(-20)" />
    <circle
       id="path131"
       style="fill:#ffff00;stroke:#000000;stroke-width:0.264583"
       cx="58.940361"
       cy="52.241074"
       r="0.022754036"
       transform="rotate(-20)" />
    <circle
       id="path133"
       style="fill:#ffff00;stroke:#000000;stroke-width:0.264583"
       cx="19.132662"
       cy="14.691152"
       r="0.022754036" />
    <circle
       id="path135"
       style="fill:#ffff00;stroke:#000000;stroke-width:0.264583"
       cx="19.132662"
       cy="14.691152"
       r="0.022754036" />
    <path
       style="fill:#ffff00;stroke-width:0.264583"
       id="path293"
       d="m 32.371802,27.300314 c 0.502222,0.05193 0.990846,0.179115 1.473674,0.321479 0.347332,0.124323 0.703471,0.21894 1.055796,0.327007 0.342201,0.09011 0.683538,0.185327 1.027948,0.267094 0.342908,0.07684 0.694288,0.09447 1.044297,0.105219 0.342403,0.0071 0.684914,0.0054 1.02737,0.0048 0.351575,0.02416 0.694078,-0.05399 1.039204,-0.105841 0.416837,-0.03521 0.829122,-0.09799 1.241935,-0.164934 0.470038,-0.109077 0.947518,-0.169296 1.426586,-0.219982 0.406384,-0.0764 0.815102,-0.134858 1.227204,-0.168243 0.354576,-0.02053 0.699222,-0.110967 1.052073,-0.148635 0.323559,-0.08159 0.647414,-0.153411 0.959551,-0.272717 0.36953,-0.149588 0.744167,-0.28556 1.098293,-0.46936 0.339111,-0.181359 0.688647,-0.338622 1.044501,-0.483939 0.36217,-0.124255 0.734105,-0.216004 1.102487,-0.319479 0.375703,-0.09792 0.724263,-0.274448 1.091184,-0.39894 0.300678,-0.140918 0.61359,-0.251858 0.914263,-0.392715 0.372583,-0.159655 0.742328,-0.328893 1.125765,-0.46114 1.392203,-0.61295 0.12106,-0.04696 3.682007,-2.085125 0.04155,-0.02378 0.16518,-0.09689 0.123701,-0.07298 -1.091285,0.629052 -4.363577,2.518907 -3.273126,1.888412 3.472037,-2.00752 2.313755,-1.401079 3.622085,-2.083773 0.243091,-0.187336 0.453993,-0.404289 0.646816,-0.64487 0.249047,-0.299331 0.519986,-0.580126 0.750742,-0.89288 0.143248,-0.255311 0.331094,-0.497189 0.551553,-0.690937 0.01252,-0.0052 0.02503,-0.01038 0.03754,-0.01557 0,0 -3.691567,1.517239 -3.691567,1.517239 v 0 c -0.0043,0.01067 -0.0085,0.02135 -0.01275,0.03202 -0.177441,0.234752 -0.347853,0.473844 -0.521544,0.710745 -0.25422,0.291143 -0.496891,0.592551 -0.76185,0.874576 -0.207729,0.208342 -0.440727,0.397314 -0.702124,0.533215 -1.023628,0.663708 4.253428,-2.391265 3.178013,-1.815242 -11.366497,6.088208 1.76158,-0.632868 -0.530275,0.289776 -0.352888,0.194058 -0.761167,0.281135 -1.122836,0.461962 -0.308436,0.124435 -0.602327,0.280071 -0.916739,0.390162 -0.333544,0.188267 -0.72666,0.258892 -1.060865,0.45065 -0.371425,0.100641 -0.740561,0.200978 -1.112015,0.297438 -0.374176,0.104089 -0.737852,0.26161 -1.078074,0.447249 -0.172871,0.07901 -0.330713,0.193895 -0.503872,0.268664 -0.187304,0.08088 -0.398283,0.113217 -0.57076,0.231236 -0.307932,0.111155 -0.598085,0.243555 -0.922348,0.302524 -0.320156,0.12895 -0.690808,0.0836 -1.017304,0.209388 -0.421471,0.01935 -0.842153,0.05687 -1.256485,0.139843 -0.472644,0.109438 -0.969632,0.08517 -1.440252,0.216579 -0.396838,0.09152 -0.803552,0.150438 -1.209376,0.175372 -0.34101,0.03282 -0.672499,0.120253 -1.010766,0.143931 -0.340884,7.14e-4 -0.681768,0.0022 -1.022652,0.0017 -0.334851,-0.0019 -0.67098,-0.0026 -1.003554,-0.04662 -0.342786,-0.05595 -0.666647,-0.172914 -1.007509,-0.235924 -0.357775,-0.106059 -0.720672,-0.191963 -1.068591,-0.329705 -0.498851,-0.128012 -0.992643,-0.267008 -1.496386,-0.375325 0,0 -3.230967,2.286594 -3.230967,2.286594 z" />
    <path
       style="fill:#ffff00;stroke-width:0.264583"
       id="path295"
       d="m 45.225252,27.986463 c 0.583819,-0.259302 1.192276,-0.456851 1.794158,-0.669009 0.596903,-0.203052 1.180304,-0.442759 1.771349,-0.661591 0.46673,-0.186579 0.929505,-0.386144 1.381969,-0.605403 1.594654,-0.842905 3.167811,-1.730645 4.693131,-2.694179 0.460555,-0.386501 0.89948,-0.801592 1.291524,-1.257607 0.432041,-0.430358 0.733793,-0.948603 1.046104,-1.465035 0.3297,-0.537428 0.583076,-1.107584 0.823696,-1.6888 0.243509,-0.671765 0.544333,-1.321643 0.78006,-1.995975 0.109271,-0.177817 0.160222,-0.342593 0.163087,-0.547123 0,0 -3.558394,1.758481 -3.558394,1.758481 v 0 c -0.05281,0.151599 -0.112758,0.30051 -0.164846,0.452396 -0.238197,0.662038 -0.498812,1.316394 -0.771822,1.964765 -0.250642,0.56779 -0.538385,1.11703 -0.863634,1.645999 -0.306173,0.502441 -0.658844,0.967316 -1.068644,1.391193 -0.413348,0.423828 -0.838883,0.846656 -1.342753,1.163096 -1.265499,0.778906 -0.27178,0.16414 2.917307,-1.669707 0.0736,-0.04232 -0.145532,0.08761 -0.220155,0.128101 -0.216723,0.117606 -0.447283,0.210769 -0.649949,0.353654 -0.447609,0.233807 -0.910802,0.429584 -1.365073,0.648557 -0.594788,0.218592 -1.182179,0.453308 -1.776155,0.674817 -0.592495,0.202849 -1.182926,0.410678 -1.773664,0.617626 0,0 -3.107296,2.455744 -3.107296,2.455744 z" />
    <path
       style="fill:#ffff00;stroke-width:0.264583"
       id="path297"
       d="m 55.324665,9.1127166 c 0.199692,0.748824 0.253971,1.5245574 0.300175,2.2949444 0.05903,0.80416 0.03095,1.606154 -0.156519,2.39105 -0.199226,0.747529 -0.374169,1.498871 -0.499306,2.262709 -0.125209,0.798342 -0.291372,1.578539 -0.580361,2.333915 -0.275016,0.598163 -0.550442,1.194577 -0.88768,1.760529 -0.421356,0.736786 -0.956365,1.392572 -1.535355,2.009283 -0.526778,0.603694 -1.102882,1.160237 -1.684698,1.710333 -0.549714,0.50379 -1.087977,1.018776 -1.643792,1.516208 -0.504815,0.458167 -1.063247,0.856798 -1.622375,1.245982 -1.352619,0.704289 -0.08531,0.04978 2.795111,-1.638034 0.08991,-0.05269 -0.184544,0.09688 -0.277225,0.144534 -0.240596,0.123704 -0.482251,0.234204 -0.732187,0.337449 -0.390893,0.182651 -0.815448,0.247385 -1.230974,0.344314 -0.05882,0.03255 -0.470699,0.06302 -0.461039,0.130653 0,0 -3.402761,2.039193 -3.402761,2.039193 v 0 c 0.28153,0.379042 0.287078,0.308009 0.722217,0.227362 0.42726,-0.104804 0.863121,-0.16645 1.280494,-0.310751 1.758883,-0.67519 3.375308,-1.691297 4.951073,-2.715005 0.549318,-0.405091 1.101617,-0.808571 1.595419,-1.281923 0.552934,-0.50014 1.088435,-1.019437 1.635773,-1.525662 0.575546,-0.556286 1.135317,-1.128403 1.662801,-1.730935 0.571058,-0.649138 1.08884,-1.343087 1.519158,-2.094548 0.324146,-0.587775 0.619382,-1.19148 0.853458,-1.821436 0.257792,-0.778204 0.407652,-1.58027 0.540486,-2.388271 0.140523,-0.76111 0.350382,-1.504529 0.520838,-2.258957 0.146711,-0.817197 0.145145,-1.642115 0.08338,-2.4691632 -0.0448,-0.788902 -0.118333,-1.5737998 -0.241909,-2.3544942 0,0 -3.5042,1.840721 -3.5042,1.840721 z" />
  </g>
</svg>
