<?xml version="1.0" encoding="UTF-8" standalone="no"?>
<!-- Created with Inkscape (http://www.inkscape.org/) -->

<svg
   width="150mm"
   height="150mm"
   viewBox="0 0 150 150"
   version="1.1"
   id="svg5"
   sodipodi:docname="logo.svg"
   inkscape:version="1.1.2 (b8e25be833, 2022-02-05)"
   xmlns:inkscape="http://www.inkscape.org/namespaces/inkscape"
   xmlns:sodipodi="http://sodipodi.sourceforge.net/DTD/sodipodi-0.dtd"
   xmlns="http://www.w3.org/2000/svg"
   xmlns:svg="http://www.w3.org/2000/svg">
  <sodipodi:namedview
     id="namedview7"
     pagecolor="#ffffff"
     bordercolor="#666666"
     borderopacity="1.0"
     inkscape:pageshadow="2"
     inkscape:pageopacity="0.0"
     inkscape:pagecheckerboard="0"
     inkscape:document-units="mm"
     showgrid="false"
     showguides="false"
     width="150mm"
     inkscape:zoom="1.5488348"
     inkscape:cx="396.74988"
     inkscape:cy="386.74235"
     inkscape:window-width="2100"
     inkscape:window-height="1496"
     inkscape:window-x="-2111"
     inkscape:window-y="649"
     inkscape:window-maximized="1"
     inkscape:current-layer="layer1" />
  <defs
     id="defs2" />
  <g
     inkscape:label="Ebene 1"
     inkscape:groupmode="layer"
     id="layer1">
    <path
       style="fill:#000000;stroke-width:0.502413"
       id="path75"
       d="m 36.373126,15.102531 c 3.940076,-0.332534 7.885291,-0.511863 11.834516,-0.625661 6.524051,-0.20616 13.046377,-0.09017 19.566048,0.210605 6.372336,0.319656 12.720071,1.042986 19.05143,1.899301 5.371866,0.823517 10.789666,1.106866 16.19819,1.427374 3.50777,0.443349 7.09176,0.07119 10.59237,0.561738 0,0 5.77144,-4.62433 5.77144,-4.62433 v 0 c -1.19644,-0.209362 -2.41472,-0.143535 -3.62365,-0.176155 -2.40124,-0.06475 -4.80179,-0.161099 -7.20131,-0.282596 C 103.16762,13.186873 97.772273,12.806175 92.405847,12.093879 86.036325,11.262551 79.658455,10.477708 73.246676,10.213199 66.74849,9.8643135 60.247144,9.6790832 53.741956,9.890849 c -3.890016,0.067568 -7.779911,0.164762 -11.660537,0.501685 0,0 -5.708293,4.709987 -5.708293,4.709987 z" />
    <path
       style="fill:#000000;stroke-width:0.502413"
       id="path77"
       d="m 117.28598,22.387064 c 0.25268,5.148732 1.77731,10.017137 3.16313,14.875881 1.44611,6.002265 3.50367,11.76322 5.46569,17.559865 1.31424,4.428071 3.55033,8.293354 5.90762,12.0712 2.06221,3.16058 3.9112,6.492648 5.68502,9.868962 1.10149,2.541692 2.3569,4.975506 3.66499,7.386115 0.88405,1.436242 0.4586,0.842041 1.22515,1.828377 0,0 6.02173,-4.186868 6.02173,-4.186868 v 0 c -0.78628,-0.787511 -0.3481,-0.281396 -1.21676,-1.620063 -1.30064,-2.414851 -2.47494,-4.897466 -3.64551,-7.394468 -1.82858,-3.36113 -3.69733,-6.699655 -5.75848,-9.884569 -2.32012,-3.726068 -4.55356,-7.518081 -5.86348,-11.878084 -1.99666,-5.763021 -4.06628,-11.500348 -5.47908,-17.497072 -1.34913,-4.838816 -2.86147,-9.688624 -2.91915,-14.827807 0,0 -6.25087,3.698531 -6.25087,3.698531 z" />
    <path
       style="fill:#000000;stroke-width:0.502413"
       id="path79"
       d="m 140.53052,92.084042 c -4.2001,3.954093 -7.93129,8.483988 -11.59544,13.058208 -3.32045,4.12292 -6.26197,8.59527 -8.94625,13.26965 -1.77267,3.1862 -3.62202,6.31833 -5.26604,9.59388 -1.12403,1.94899 -1.91799,4.01011 -2.24695,6.30421 -0.031,0.23573 -0.062,0.47148 -0.093,0.70721 0,0 6.34288,-3.53817 6.34288,-3.53817 v 0 c 0.0289,-0.22482 0.0579,-0.44962 0.0869,-0.67445 0.38788,-2.18419 1.25977,-4.13771 2.28993,-6.02656 1.65222,-3.24142 3.47807,-6.36263 5.23754,-9.52937 2.66813,-4.61409 5.58678,-9.03067 8.87868,-13.1011 3.70817,-4.611507 7.51831,-9.143565 11.8291,-13.043276 0,0 -6.51737,2.979768 -6.51737,2.979768 z" />
    <path
       style="fill:#000000;stroke-width:0.502413"
       id="path81"
       d="m 29.92564,140.85442 c 4.032752,-1.74862 8.318343,-2.34516 12.585511,-2.80344 5.622469,-0.18759 11.177984,-0.90439 16.76277,-1.59828 3.300985,-0.34264 6.59186,-1.05507 9.915308,-1.09165 2.095507,-0.0231 2.693602,0.14934 4.81782,0.45264 4.60751,0.71265 9.142036,1.88591 13.691394,2.9531 3.011253,0.54461 5.998323,1.23737 8.998568,1.85216 0.281082,0.0354 0.56217,0.0708 0.843252,0.10644 0,0 5.728747,-4.65681 5.728747,-4.65681 v 0 c -0.27395,-0.0101 -0.5479,-0.0182 -0.82185,-0.0279 -3.020529,-0.54955 -6.018951,-1.24858 -9.040252,-1.79214 -4.590811,-0.99877 -9.155637,-2.16159 -13.782816,-2.93709 -2.08342,-0.35588 -2.803605,-0.56971 -4.875312,-0.58493 -3.341939,-0.0245 -6.650894,0.73518 -9.967308,1.07654 -2.794986,0.34945 -5.586809,0.78692 -8.386954,1.07807 -3.083122,0.3206 -2.679067,0.20303 -5.686432,0.35512 -0.888621,0.0449 -1.776448,0.10827 -2.664672,0.1623 -4.242284,0.42147 -8.52459,0.90884 -12.560816,2.55301 0,0 -5.556958,4.90289 -5.556958,4.90289 z" />
    <path
       style="fill:#000000;stroke-width:0.502413"
       id="path83"
       d="m 1.6467642,77.306054 c 3.6959508,3.365335 6.1417538,8.093941 8.6879928,12.546431 2.481451,4.569383 4.881018,9.197738 7.439869,13.712245 1.754229,2.89498 3.078216,6.0639 4.247889,9.30367 0.651657,2.26856 1.49018,4.45832 2.216778,6.69466 0.519184,1.60209 1.102183,3.17747 1.606656,4.78507 0.447349,1.32146 0.999492,2.58923 1.516441,3.87588 0.374066,1.4133 0.676538,2.85115 0.993885,4.28467 0.157747,0.63796 0.151903,1.31073 0.297833,1.9495 0,0 6.246716,-3.85893 6.246716,-3.85893 v 0 c -0.167138,-0.62102 -0.14923,-1.29496 -0.327926,-1.91524 -0.342522,-1.47276 -0.637446,-2.96089 -1.060034,-4.40536 -0.511947,-1.26625 -1.04576,-2.52093 -1.484694,-3.82348 -0.52649,-1.59856 -1.115706,-3.16942 -1.638968,-4.77021 -0.740209,-2.23928 -1.579727,-4.43659 -2.259745,-6.70245 -1.216462,-3.26497 -2.578045,-6.47629 -4.353589,-9.404167 -2.623812,-4.467012 -5.051597,-9.077972 -7.524315,-13.653586 -2.618352,-4.55387 -5.117589,-9.302073 -8.6953854,-12.992727 0,0 -5.9094034,4.374024 -5.9094034,4.374024 z" />
    <path
       style="fill:#ffff00;stroke-width:0.502413"
       id="path118"
       d="m 6.683365,48.368395 c 2.3135662,1.718821 4.859155,2.913124 7.508784,3.764712 2.181934,0.721942 4.329725,0.451636 6.490522,-0.15355 1.615845,-0.561459 3.216542,-1.183162 4.783577,-1.902022 1.194182,-0.517362 2.309659,-1.216893 3.434645,-1.895499 3.47096,-1.584669 5.875247,-3.675342 8.591393,-6.091197 0.851663,-1.087036 1.568398,-2.368708 2.070967,-3.71056 0.400285,-1.285228 0.442187,-2.653879 0.475504,-4.002296 0.01853,-1.375573 0.0071,-2.751394 0.002,-4.127046 -0.01515,-1.404464 -0.322635,-2.781333 -0.466541,-4.175892 -0.0093,-1.483773 -0.347722,-2.856714 -0.93732,-4.171907 -0.09007,-0.19374 -0.180146,-0.387467 -0.270217,-0.581201 0,0 -6.136189,3.990099 -6.136189,3.990099 v 0 c 0.0889,0.18945 0.177812,0.378895 0.266714,0.568339 0.556856,1.2393 0.77972,2.538792 0.819949,3.925651 0.154487,1.36205 0.446722,2.71302 0.427713,4.091736 0.0048,1.366186 0.01711,2.732824 -0.01622,4.098674 -0.05037,1.26318 -0.120008,2.546101 -0.600938,3.709682 -0.574839,1.239553 -1.223486,2.486628 -2.204459,3.365735 -2.21501,1.933847 -6.819663,5.391146 3.508246,-1.89609 -1.174893,0.572404 -2.209582,1.46154 -3.431871,1.930742 -1.53386,0.809906 -3.156202,1.354243 -4.739959,2.022452 -2.084471,0.638022 -4.144369,1.153902 -6.295581,0.498879 -2.603697,-0.746406 -5.117701,-1.834356 -7.343482,-3.57674 0,0 -5.937234,4.317305 -5.937234,4.317305 z" />
    <path
       style="fill:#ffff00;stroke-width:0.502413"
       id="path120"
       d="m 37.786451,35.67869 c 1.55781,0.02843 3.108643,-0.04466 4.660991,-0.183926 0,0 5.636619,-4.734191 5.636619,-4.734191 v 0 c -1.528382,0.157679 -3.052455,0.306191 -4.589317,0.208125 0,0 -5.708293,4.709992 -5.708293,4.709992 z" />
    <path
       style="fill:#ffff00;stroke-width:0.502413"
       id="path122"
       d="m 35.174679,45.614626 c 1.926583,1.477842 3.556514,3.405177 4.839761,5.598773 0.12726,0.302967 0.254535,0.605941 0.381804,0.908908 0,0 6.117595,-3.945138 6.117595,-3.945138 v 0 c -0.145114,-0.334125 -0.290214,-0.668248 -0.435323,-1.002371 -1.349679,-2.259345 -3.036688,-4.245437 -4.966608,-5.877478 0,0 -5.937229,4.317306 -5.937229,4.317306 z" />
    <path
       style="fill:#ffff00;stroke-width:0.502413"
       id="path124"
       d="m 25.772357,52.452968 c -0.185356,3.059008 -0.342769,6.119401 -0.430085,9.184117 -0.04214,1.767827 -0.05406,0.903083 0.02762,2.594367 0,0 6.240675,-3.655912 6.240675,-3.655912 v 0 c -0.06441,-1.62896 -0.05426,-0.787444 -0.02103,-2.524671 0.08679,-3.059159 0.204938,-6.120533 0.500887,-9.16426 0,0 -6.318094,3.566359 -6.318094,3.566359 z" />
    <path
       style="fill:#ffff00;stroke-width:0.502413"
       id="path126"
       d="m 12.882172,55.315045 c -0.771419,3.659525 -1.819657,7.265739 -3.0780961,10.748327 0,0 6.3762371,-3.363993 6.3762371,-3.363993 v 0 c 1.10294,-3.579085 2.211567,-7.165168 3.04995,-10.837912 0,0 -6.348091,3.453578 -6.348091,3.453578 z" />
    <path
       style="fill:#008000;stroke-width:0.502413"
       id="path161"
       d="m 34.595061,96.721758 c 0.988096,2.169224 2.121286,4.243672 3.228674,6.334532 0.90695,1.50674 1.744814,3.02755 2.304428,4.74354 0.423941,1.77811 0.715986,3.60293 0.972544,5.4227 0.448065,2.16506 0.679942,4.37235 0.827515,6.58658 0.102439,1.76042 0.105236,3.52537 0.105735,5.28879 -0.002,1.08393 0.01942,0.51129 -0.07935,1.71709 0,0 6.300523,-3.57035 6.300523,-3.57035 v 0 c 0.08562,-1.2769 0.06949,-0.68055 0.06641,-1.7883 -0.01069,-1.77922 -0.02357,-3.56082 -0.148001,-5.33541 -0.177277,-2.23091 -0.436722,-4.45172 -0.850184,-6.64367 -0.270776,-1.8679 -0.555447,-3.74778 -1.036749,-5.56157 -0.582562,-1.76174 -1.427035,-3.33253 -2.37802,-4.869878 -1.119097,-2.070082 -2.278216,-4.120352 -3.199018,-6.317953 0,0 -6.114516,3.993899 -6.114516,3.993899 z" />
    <path
       style="fill:#008000;stroke-width:0.502413"
       id="path163"
       d="m 52.645281,120.29155 c 0.155182,-3.02427 0.318307,-6.04297 0.613822,-9.05366 0.285005,-2.27243 0.757303,-4.45853 1.539828,-6.57177 0.683823,-1.70441 1.09511,-3.50073 1.299814,-5.352462 0.07021,-0.959817 0.0023,-0.509043 0.184356,-1.355769 0,0 -6.36143,3.506341 -6.36143,3.506341 v 0 c -0.122966,0.90886 -0.06992,0.44527 -0.157195,1.39104 -0.239086,1.78776 -0.697839,3.50728 -1.349599,5.15998 -0.748162,2.17529 -1.164079,4.43744 -1.425327,6.75378 -0.283342,3.02522 -0.387301,6.06282 -0.662362,9.08887 0,0 6.318093,-3.56635 6.318093,-3.56635 z" />
    <path
       style="fill:#008000;stroke-width:0.502413"
       id="path165"
       d="m 55.070076,117.53778 c 0.154505,-3.69338 1.336129,-7.19993 2.143599,-10.7555 1.068364,-4.54249 2.730425,-8.850358 4.190518,-13.238048 1.497823,-4.664707 3.183112,-9.245123 4.99904,-13.760336 1.380781,-3.416267 3.341231,-6.373396 5.74146,-8.934053 1.941917,-2.18153 3.966377,-4.261976 5.906092,-6.445377 1.599746,-1.610405 3.000766,-3.431537 4.464832,-5.191253 1.314452,-1.482713 2.756324,-2.834938 4.208317,-4.143208 1.584422,-1.495774 3.20829,-2.93385 4.808847,-4.40689 1.590566,-1.351738 3.233312,-2.62774 4.802916,-4.00971 -0.621073,0.410273 2.284982,-1.600608 1.702121,-1.222387 -11.664431,7.569065 -1.104569,1.209333 2.533872,-1.778717 0.068,-0.109113 0.13595,-0.218234 0.20392,-0.32735 0,0 -6.555579,3.086532 -6.555579,3.086532 v 0 c -0.07851,0.05828 -0.157017,0.11656 -0.235536,0.17484 -0.344351,0.247638 -1.390917,0.96526 -1.036254,0.737147 1.785372,-1.148323 7.097549,-4.679328 5.341759,-3.473609 -2.815349,1.933322 -5.798429,3.573093 -8.47881,5.753664 -1.602362,1.341649 -3.221927,2.656754 -4.800626,4.034806 -1.607982,1.460757 -3.209702,2.929169 -4.805448,4.407129 -1.441451,1.348611 -2.910308,2.680681 -4.172788,4.250304 -1.427162,1.782179 -2.914985,3.486309 -4.452139,5.146923 -1.942848,2.168754 -3.96064,4.248488 -5.891291,6.431965 -2.339991,2.673331 -4.241981,5.720715 -5.591731,9.18264 -1.791338,4.532598 -3.431636,9.135443 -4.95808,13.79184 -1.489317,4.404498 -3.137269,8.751128 -4.185036,13.329118 -0.843088,3.61028 -1.981704,7.17369 -2.202068,10.92588 0,0 6.318093,-3.56636 6.318093,-3.56636 z" />
    <path
       style="fill:#008000;stroke-width:0.502413"
       id="path167"
       d="m 52.818575,107.28096 c 0.80186,-2.72095 1.016935,-5.51653 1.059937,-8.362811 -0.01,-2.772251 -0.07724,-5.54361 -0.103561,-8.315638 -0.02188,-2.334114 -0.01443,-4.668395 -0.0082,-7.002574 -0.165089,-1.433831 0.386315,-2.812825 0.104292,-4.219303 0,0 -6.2507,3.785181 -6.2507,3.785181 v 0 c 0.155895,1.340713 -0.334714,2.712618 -0.134673,4.070169 0.01301,2.327954 0.03612,4.655791 0.05588,6.98368 0.02913,2.766138 0.08006,5.532087 0.08638,8.298336 -0.05212,2.79769 -0.343601,5.53808 -1.183936,8.1897 0,0 6.37463,-3.42674 6.37463,-3.42674 z" />
    <path
       style="fill:#808080;stroke-width:0.502413"
       id="path235"
       d="m 78.194063,74.378601 c 2.150674,-0.271812 4.310101,-0.438834 6.471313,-0.552208 1.69972,-0.081 3.4012,-0.09139 5.102155,-0.09574 2.322189,-0.162556 4.638627,-0.426472 6.949039,-0.736726 2.591283,-0.370008 5.19845,-0.516763 7.80712,-0.598258 2.09039,-0.05344 4.17713,-0.104883 6.26065,0.115264 1.55979,0.210888 3.12181,0.388773 4.69053,0.483016 1.02414,0.01781 2.04939,0.222661 3.03518,0.534109 0.0346,0.03288 0.0692,0.06571 0.10381,0.09853 0,0 6.07573,-4.166083 6.07573,-4.166083 v 0 c -0.0993,-0.140742 -0.19865,-0.281481 -0.29798,-0.422225 -0.96018,-0.508002 -2.14316,-0.621559 -3.1851,-0.729465 -1.57019,-0.06445 -3.13605,-0.20365 -4.69557,-0.424544 -2.10842,-0.256457 -4.2129,-0.27797 -6.33269,-0.179534 -2.6229,0.07131 -5.24696,0.178704 -7.85284,0.549829 -2.28671,0.285095 -4.572149,0.546751 -6.864231,0.776523 -1.707237,0.0022 -3.415259,-0.0093 -5.121505,0.06832 -2.16306,0.110752 -4.32241,0.288355 -6.479228,0.505069 0,0 -5.66639,4.774129 -5.66639,4.774129 z" />
    <path
       style="fill:#333333;stroke-width:0.557245"
       id="path897"
       d="m 79.486816,90.06141 c -0.405928,2.945991 -0.749018,5.905411 -0.932854,8.889748 -0.0823,2.919642 -0.563004,5.782482 -0.888697,8.665072 -0.220695,3.09763 -0.606579,6.16605 -0.864806,9.25845 -0.179067,2.15885 -0.243125,4.32879 -0.269632,6.49864 -0.356397,1.86948 0.07657,2.60924 1.46682,3.10053 2.588025,0.45821 5.208193,0.0249 7.792635,-0.26537 4.099935,-0.47539 8.207696,-0.82819 12.319776,-1.06014 4.028322,-0.0508 8.905672,-1.11128 10.645732,-7.02613 0.73421,-2.60589 0.98639,-5.37245 1.1429,-8.12408 0.10787,-2.16483 0.097,-4.33486 0.0959,-6.50296 -0.066,-1.6262 0.0764,-3.24227 0.49662,-4.777285 0.50131,-1.82626 0.92124,-3.686771 1.33992,-5.555573 0.38488,-2.462242 0.56008,-4.995424 1.11479,-7.407481 0.18895,-0.550895 0.23079,-1.162524 0.3887,-1.725446 0.27141,-0.967579 0.52647,-1.33485 0.10133,-2.298556 -0.32548,-0.170023 -0.62831,-0.45687 -0.97644,-0.510109 -0.76535,-0.117025 -3.39341,0.356257 -3.96202,0.441493 -2.69692,0.404236 -5.39052,0.836401 -8.08513,1.266192 -3.232291,0.506871 -6.470758,0.956912 -9.721819,1.192198 -1.383845,0.09284 -2.769708,0.0944 -4.154935,0.09084 -0.751102,0.03167 -1.489471,-5.5e-5 -2.229074,-0.170064 0,0 -6.005139,5.464109 -6.005139,5.464109 v 0 c 0.772657,0.235677 1.521033,0.4157 2.321271,0.318658 1.403243,0.0063 2.807281,0.01558 4.209337,-0.07398 3.308194,-0.241672 6.599484,-0.748724 9.887249,-1.27515 4.121545,-0.658892 8.24902,-1.249628 12.36871,-1.920064 -0.0331,1.058332 -0.62851,2.191352 -0.72063,3.303153 -0.43858,2.443776 -0.66942,4.942995 -1.12114,7.382184 -0.42889,1.867928 -0.8912,3.715671 -1.36473,5.563441 -0.32444,1.64877 -0.46697,3.31462 -0.38316,5.01992 0.004,2.14156 0.004,4.28534 -0.1041,6.4233 -0.16847,2.65768 -0.42691,5.348 -1.2736,7.80348 -1.59905,3.27716 -0.63626,0.99327 5.29727,-3.2065 0.19958,-0.14125 -0.37439,0.34967 -0.58877,0.44705 -0.9174,0.41672 -1.95215,0.0476 -2.88825,0.26444 -4.138703,0.27535 -8.271403,0.67974 -12.402849,1.09881 -2.507912,0.25995 -5.029989,0.60246 -7.546259,0.34935 -1.373978,-0.17342 -1.062196,-0.14246 -0.950741,-1.94915 0.02699,-2.1354 0.08936,-4.27099 0.263754,-6.3958 0.259315,-3.07661 0.619868,-6.13681 0.866187,-9.21536 0.346895,-2.90135 0.802884,-5.79015 0.88584,-8.73358 0.200616,-2.958153 0.508157,-5.904209 0.992007,-8.807889 0,0 -6.56201,4.15961 -6.56201,4.15961 z" />
    <text
       xml:space="preserve"
       style="font-style:normal;font-variant:normal;font-weight:bold;font-stretch:normal;font-size:24.0149px;line-height:0;font-family:monospace;-inkscape-font-specification:'monospace Bold';fill:#000000;fill-opacity:1;stroke:none;stroke-width:0.600368"
       x="88.013023"
       y="94.04055"
       id="text3629"
       transform="scale(0.99237903,1.0076795)"><tspan
         style="font-style:normal;font-variant:normal;font-weight:bold;font-stretch:normal;font-size:3.42118px;line-height:0.05;font-family:monospace;-inkscape-font-specification:'monospace Bold';stroke-width:0.600368"
         sodipodi:role="line"
         id="tspan10287"
         x="88.013023"
         y="94.04055">2.2 3.4 </tspan><tspan
         style="font-style:normal;font-variant:normal;font-weight:bold;font-stretch:normal;font-size:3.42118px;line-height:0.05;font-family:monospace;-inkscape-font-specification:'monospace Bold';stroke-width:0.600368"
         sodipodi:role="line"
         id="tspan10289"
         x="88.013023"
         y="99.313309">1.2  gk </tspan><tspan
         style="font-style:normal;font-variant:normal;font-weight:bold;font-stretch:normal;font-size:3.42118px;line-height:0.05;font-family:monospace;-inkscape-font-specification:'monospace Bold';stroke-width:0.600368"
         sodipodi:role="line"
         id="tspan10291"
         x="88.013023"
         y="104.58607">2.2 1.4 </tspan><tspan
         style="font-style:normal;font-variant:normal;font-weight:bold;font-stretch:normal;font-size:3.42118px;line-height:0.05;font-family:monospace;-inkscape-font-specification:'monospace Bold';stroke-width:0.600368"
         sodipodi:role="line"
         id="tspan10293"
         x="88.013023"
         y="109.85883">  2 3.5</tspan><tspan
         sodipodi:role="line"
         style="font-style:normal;font-variant:normal;font-weight:bold;font-stretch:normal;line-height:0.05;font-family:monospace;-inkscape-font-specification:'monospace Bold';stroke-width:0.600368"
         x="88.013023"
         y="115.73196"
         id="tspan3639"><tspan
   id="tspan19507"
   style="font-style:normal;font-variant:normal;font-weight:bold;font-stretch:normal;font-size:3.42118px;line-height:0.05;font-family:monospace;-inkscape-font-specification:'monospace Bold';stroke-width:0.600368">1.2 3.4</tspan> </tspan></text>
    <path
       style="fill:#333333;stroke-width:0.502413"
       id="path55608"
       d="m 114.51466,72.906024 c 1.68424,0.475547 3.36753,0.952449 5.07053,1.334337 0.82606,0.193051 1.66412,0.286101 2.50481,0.339744 0,0 5.71523,-4.680019 5.71523,-4.680019 v 0 c -0.83601,-0.01518 -1.67211,-0.05782 -2.49928,-0.207486 -1.69108,-0.304324 -3.37193,-0.703837 -4.99707,-1.325427 0,0 -5.79422,4.538851 -5.79422,4.538851 z" />
    <path
       style="fill:#333333;stroke-width:0.582344"
       id="path55612"
       d="m 118.04796,70.153406 c 1.82397,0.587395 3.68861,1.090076 5.56661,1.539506 0.23784,0.05027 0.47568,0.100573 0.71352,0.150859 0,0 7.7509,-4.543708 7.7509,-4.543708 v 0 c -0.23651,-0.0393 -0.47305,-0.07854 -0.70959,-0.117814 -1.8364,-0.373797 -3.65139,-0.85043 -5.41183,-1.428027 0,0 -7.90961,4.399196 -7.90961,4.399196 z" />
  </g>
</svg>
